<svg xmlns="http://www.w3.org/2000/svg" width="162" height="250" viewBox="0 0 162 250"><defs><style>.a{fill:#fff;}.b,.c{fill:#f44725;}.c{font-size:38px;font-family:OleoScript-Regular, Oleo Script;letter-spacing:0.1em;}</style></defs><g transform="translate(81 125)"><g transform="translate(-81 -125)"><g transform="translate(0)"><rect class="a" width="161.3" height="249.25" rx="11.6" transform="translate(0.4 0.4)"/><path d="M150,.8A11.3,11.3,0,0,1,161.2,12V238A11.3,11.3,0,0,1,150,249.3H12A11.3,11.3,0,0,1,.7,238V12A11.3,11.3,0,0,1,12,.8H150m0-.7H12A12,12,0,0,0,0,12V238a12,12,0,0,0,12,12H150a12,12,0,0,0,12-12V12A12,12,0,0,0,150,0Z"/></g><path class="b" d="M88.3,103.8a4.7,4.7,0,0,0-3.5-1.4,5,5,0,0,0-3.5,1.5l-.3.3h-.1l-.3-.3a5,5,0,0,0-3.5-1.5,4.8,4.8,0,0,0-3.4,8.2l7.1,7.1h.3l7.1-7.1a4.8,4.8,0,0,0,.1-6.8" transform="translate(0)"/><path class="b" d="M87.7,110,81,116.7,74.3,110a4.1,4.1,0,0,1,0-5.7,4,4,0,0,1,2.9-1.2,4.2,4.2,0,0,1,3,1.2l.3.3a.9.9,0,0,0,1.3,0l.3-.3a4.3,4.3,0,0,1,3-1.2,4,4,0,0,1,2.9,1.2,4.1,4.1,0,0,1-.1,5.7" transform="translate(0)"/><path class="b" d="M118.3,103.8a4.7,4.7,0,0,0-3.5-1.4,5,5,0,0,0-3.5,1.5l-.3.3h-.1l-.3-.3a5,5,0,0,0-3.5-1.5,4.8,4.8,0,0,0-3.4,8.2l7.1,7.1h.3l7.1-7.1a4.8,4.8,0,0,0,.1-6.8" transform="translate(0)"/><path class="b" d="M117.7,110l-6.7,6.7-6.7-6.7a4.1,4.1,0,0,1,0-5.7,4,4,0,0,1,2.9-1.2,4.2,4.2,0,0,1,3,1.2l.3.3a.9.9,0,0,0,1.3,0l.3-.3a4.3,4.3,0,0,1,3-1.2,4,4,0,0,1,2.9,1.2,4.1,4.1,0,0,1-.1,5.7" transform="translate(0)"/><path class="b" d="M58.3,103.8a4.7,4.7,0,0,0-3.5-1.4,5,5,0,0,0-3.5,1.5l-.3.3h-.1l-.3-.3a5,5,0,0,0-3.5-1.5,4.8,4.8,0,0,0-3.4,8.2l7.1,7.1h.3l7.1-7.1a4.8,4.8,0,0,0,.1-6.8" transform="translate(0)"/><path class="b" d="M57.7,110,51,116.7,44.3,110a4.1,4.1,0,0,1,0-5.7,4,4,0,0,1,2.9-1.2,4.2,4.2,0,0,1,3,1.2l.3.3a.9.9,0,0,0,1.3,0l.3-.3a4.3,4.3,0,0,1,3-1.2,4,4,0,0,1,2.9,1.2,4.1,4.1,0,0,1-.1,5.7" transform="translate(0)"/><path class="b" d="M118.3,73.8a4.7,4.7,0,0,0-3.5-1.4,5,5,0,0,0-3.5,1.5l-.3.3h-.1l-.3-.3a5,5,0,0,0-3.5-1.5,4.8,4.8,0,0,0-3.4,8.2l7.1,7.1h.3l7.1-7.1a4.8,4.8,0,0,0,.1-6.8" transform="translate(0)"/><path class="b" d="M117.7,80,111,86.7,104.3,80a4.1,4.1,0,0,1,0-5.7,4,4,0,0,1,2.9-1.2,4.2,4.2,0,0,1,3,1.2l.3.3a.9.9,0,0,0,1.3,0l.3-.3a4.3,4.3,0,0,1,3-1.2,4,4,0,0,1,2.9,1.2,4.1,4.1,0,0,1-.1,5.7" transform="translate(0)"/><path class="b" d="M58.3,73.8a4.7,4.7,0,0,0-3.5-1.4,5,5,0,0,0-3.5,1.5l-.3.3h-.1l-.3-.3a5,5,0,0,0-3.5-1.5,4.8,4.8,0,0,0-3.4,8.2l7.1,7.1h.3l7.1-7.1a4.8,4.8,0,0,0,.1-6.8" transform="translate(0)"/><path class="b" d="M57.7,80,51,86.7,44.3,80a4.1,4.1,0,0,1,0-5.7,4,4,0,0,1,2.9-1.2,4.2,4.2,0,0,1,3,1.2l.3.3a.9.9,0,0,0,1.3,0l.3-.3a4.3,4.3,0,0,1,3-1.2A4,4,0,0,1,58,74.3a4.1,4.1,0,0,1-.1,5.7" transform="translate(0)"/><path class="b" d="M118.3,133.8a4.7,4.7,0,0,0-3.5-1.4,5,5,0,0,0-3.5,1.5l-.3.3h-.1l-.3-.3a5,5,0,0,0-3.5-1.5,4.8,4.8,0,0,0-3.4,8.2l7.1,7.1h.3l7.1-7.1a4.8,4.8,0,0,0,.1-6.8" transform="translate(0)"/><path class="b" d="M117.7,140l-6.7,6.7-6.7-6.7a4.1,4.1,0,0,1,0-5.7,4,4,0,0,1,2.9-1.2,4.2,4.2,0,0,1,3,1.2l.3.3a.9.9,0,0,0,1.3,0l.3-.3a4.3,4.3,0,0,1,3-1.2,4,4,0,0,1,2.9,1.2,4.1,4.1,0,0,1-.1,5.7" transform="translate(0)"/><path class="b" d="M118.3,163.8a4.7,4.7,0,0,0-3.5-1.4,5,5,0,0,0-3.5,1.5l-.3.3h-.1l-.3-.3a5,5,0,0,0-3.5-1.5,4.8,4.8,0,0,0-3.4,8.2l7.1,7.1h.3l7.1-7.1a4.8,4.8,0,0,0,.1-6.8" transform="translate(0)"/><path class="b" d="M117.7,170l-6.7,6.7-6.7-6.7a4.1,4.1,0,0,1,0-5.7,4,4,0,0,1,2.9-1.2,4.2,4.2,0,0,1,3,1.2l.3.3a.9.9,0,0,0,1.3,0l.3-.3a4.3,4.3,0,0,1,3-1.2,4,4,0,0,1,2.9,1.2,4.1,4.1,0,0,1-.1,5.7" transform="translate(0)"/><path class="b" d="M58.3,163.8a4.7,4.7,0,0,0-3.5-1.4,5,5,0,0,0-3.5,1.5l-.3.3h-.1l-.3-.3a5,5,0,0,0-3.5-1.5,4.8,4.8,0,0,0-3.4,8.2l7.1,7.1h.3l7.1-7.1a4.8,4.8,0,0,0,.1-6.8" transform="translate(0)"/><path class="b" d="M57.7,170,51,176.7,44.3,170a4.1,4.1,0,0,1,0-5.7,4,4,0,0,1,2.9-1.2,4.2,4.2,0,0,1,3,1.2l.3.3a.9.9,0,0,0,1.3,0l.3-.3a4.3,4.3,0,0,1,3-1.2,4,4,0,0,1,2.9,1.2,4.1,4.1,0,0,1-.1,5.7" transform="translate(0)"/><path class="b" d="M88.3,133.8a4.7,4.7,0,0,0-3.5-1.4,5,5,0,0,0-3.5,1.5l-.3.3h-.1l-.3-.3a5,5,0,0,0-3.5-1.5,4.8,4.8,0,0,0-3.4,8.2l7.1,7.1h.3l7.1-7.1a4.8,4.8,0,0,0,.1-6.8" transform="translate(0)"/><path class="b" d="M87.7,140,81,146.7,74.3,140a4.1,4.1,0,0,1,0-5.7,4,4,0,0,1,2.9-1.2,4.2,4.2,0,0,1,3,1.2l.3.3a.9.9,0,0,0,1.3,0l.3-.3a4.3,4.3,0,0,1,3-1.2,4,4,0,0,1,2.9,1.2,4.1,4.1,0,0,1-.1,5.7" transform="translate(0)"/><path class="b" d="M58.3,133.8a4.7,4.7,0,0,0-3.5-1.4,5,5,0,0,0-3.5,1.5l-.3.3h-.1l-.3-.3a5,5,0,0,0-3.5-1.5,4.8,4.8,0,0,0-3.4,8.2l7.1,7.1h.3l7.1-7.1a4.8,4.8,0,0,0,.1-6.8" transform="translate(0)"/><path class="b" d="M57.7,140,51,146.7,44.3,140a4.1,4.1,0,0,1,0-5.7,4,4,0,0,1,2.9-1.2,4.2,4.2,0,0,1,3,1.2l.3.3a.9.9,0,0,0,1.3,0l.3-.3a4.3,4.3,0,0,1,3-1.2,4,4,0,0,1,2.9,1.2,4.1,4.1,0,0,1-.1,5.7" transform="translate(0)"/><g transform="translate(0)"><path class="b" d="M150.4,13.6a8.5,8.5,0,0,0-6.3-2.6,9.2,9.2,0,0,0-6.5,2.7l-.5.5h-.2l-.5-.5a9.2,9.2,0,0,0-6.5-2.7,8.8,8.8,0,0,0-6.2,15l13,13h.5l12.9-13a8.8,8.8,0,0,0,.3-12.4Z"/><path class="b" d="M149.3,25,137,37.2,124.7,25a7.5,7.5,0,0,1-.1-10.4,7.3,7.3,0,0,1,5.3-2.2,7.7,7.7,0,0,1,5.5,2.3l.5.5a1.7,1.7,0,0,0,2.3,0l.5-.5a7.8,7.8,0,0,1,5.5-2.3,7.3,7.3,0,0,1,5.3,2.2,7.5,7.5,0,0,1-.2,10.4Z"/></g><g transform="translate(0)"><path class="b" d="M39.2,224,26.3,211h-.5l-13,13A8.8,8.8,0,0,0,19,239a9.2,9.2,0,0,0,6.5-2.7l.5-.5h.2l.5.5a9.2,9.2,0,0,0,6.5,2.7,8.5,8.5,0,0,0,6.3-2.6,8.8,8.8,0,0,0-.3-12.4Z"/><path class="b" d="M38.4,235.4a7.3,7.3,0,0,1-5.3,2.2,7.8,7.8,0,0,1-5.5-2.3l-.5-.5a1.7,1.7,0,0,0-2.3,0l-.5.5a7.7,7.7,0,0,1-5.5,2.3,7.3,7.3,0,0,1-5.3-2.2,7.5,7.5,0,0,1,.1-10.4L26,212.8,38.3,225a7.5,7.5,0,0,1,.1,10.4Z"/></g><text class="c" transform="translate(11 38.1)"><tspan x="0" y="0">10</tspan></text><text class="c" transform="translate(152 211.9) rotate(180)"><tspan x="0" y="0">10</tspan></text></g></g></svg>