<svg xmlns="http://www.w3.org/2000/svg" width="162" height="250" viewBox="0 0 162 250"><defs><style>.a{fill:#fff;}.b{font-size:38px;font-family:OleoScript-Regular, Oleo Script;letter-spacing:0.1em;}</style></defs><g transform="translate(81 125)"><g transform="translate(-81 -125)"><g transform="translate(0)"><rect class="a" width="161.3" height="249.25" rx="11.6" transform="translate(0.4 0.4)"/><path d="M150,.8A11.3,11.3,0,0,1,161.3,12V238A11.3,11.3,0,0,1,150,249.3H12A11.3,11.3,0,0,1,.8,238V12A11.3,11.3,0,0,1,12,.8H150m0-.7H12A12,12,0,0,0,0,12V238a12,12,0,0,0,12,12H150a12,12,0,0,0,12-12V12A12,12,0,0,0,150,0Z"/></g><g transform="translate(0)"><path d="M145.1,18.9v-.2a6.7,6.7,0,0,0,0-2.2A8.1,8.1,0,0,0,137,9.6h0a8.1,8.1,0,0,0-8.1,8.1,9.294,9.294,0,0,0,.1,1c0,.1,0,.2-.1.2a8,8,0,0,0-6.4,8.7,8.4,8.4,0,0,0,7.5,7.2h.5a8,8,0,0,0,6.4-3.2h.3a8,8,0,0,0,6.4,3.2h.5a8.1,8.1,0,0,0,1.1-16Z"/><path d="M150.2,27.5a6.7,6.7,0,0,1-6.2,6h-.4a6.6,6.6,0,0,1-5.3-2.6,1.708,1.708,0,0,0-2.6,0,6.6,6.6,0,0,1-5.3,2.6H130a7.1,7.1,0,0,1-6.2-6,6.6,6.6,0,0,1,5.3-7.2,1.6,1.6,0,0,0,1.3-1.7,6.8,6.8,0,0,1-.1-.8A6.7,6.7,0,0,1,137,11h0a6.7,6.7,0,0,1,6.5,5.7,6.4,6.4,0,0,1,0,1.8,1.6,1.6,0,0,0,1.3,1.7,6.7,6.7,0,0,1,5.4,7.3Z"/><path d="M142.5,38.8c-1.7-.3-3.4-2.1-4.7-3.5l-.6-.6H137l-.6.6c-1.3,1.3-3,3.2-4.7,3.5a.2.2,0,0,0-.1.2v1.3a.2.2,0,0,0,.2.2h10.7a.2.2,0,0,0,.2-.2V38.9a.2.2,0,0,0-.2-.1Z"/><path d="M134.5,38.9a21.8,21.8,0,0,0,2.5-2.3h.3a21.8,21.8,0,0,0,2.5,2.3Z"/></g><g transform="translate(0)"><path d="M40.6,222.4a8.1,8.1,0,0,0-7.5-7.2h-.5a8,8,0,0,0-6.4,3.2h-.3a8,8,0,0,0-6.4-3.2H19a8.4,8.4,0,0,0-7.5,7.2,8,8,0,0,0,6.4,8.7c.1,0,.1.1.1.2a9.3,9.3,0,0,0-.1,1,8.1,8.1,0,0,0,8.1,8.1h0a8.1,8.1,0,0,0,7.9-6.9,6.7,6.7,0,0,0,0-2.2v-.2a8.1,8.1,0,0,0,6.7-8.7Z"/><path d="M33.9,229.7a1.6,1.6,0,0,0-1.3,1.7,6.4,6.4,0,0,1,0,1.8A6.7,6.7,0,0,1,26,239h0a6.7,6.7,0,0,1-6.7-6.7,6.8,6.8,0,0,1,.1-.8,1.6,1.6,0,0,0-1.3-1.7,6.6,6.6,0,0,1-5.3-7.2,7.1,7.1,0,0,1,6.2-6h.4a6.6,6.6,0,0,1,5.3,2.6,1.708,1.708,0,0,0,2.6,0,6.6,6.6,0,0,1,5.3-2.6H33a6.7,6.7,0,0,1,.9,13.2Z"/><path d="M31.6,211.1v-1.3a.2.2,0,0,0-.2-.2H20.7a.2.2,0,0,0-.2.2v1.3a.2.2,0,0,0,.1.2c1.7.3,3.4,2.1,4.7,3.5l.6.6h.2l.6-.6c1.3-1.3,3-3.2,4.7-3.5A.2.2,0,0,0,31.6,211.1Z"/><path d="M23.5,211.1h5.2a21.8,21.8,0,0,0-2.5,2.3h-.3a21.8,21.8,0,0,0-2.5-2.3Z"/></g><g transform="translate(0)"><path d="M95.6,114a.3.3,0,0,1-.3-.3,12.1,12.1,0,0,0-.1-4A14.6,14.6,0,0,0,81,97.3h0a14.5,14.5,0,0,0-14.5,14.5,16.7,16.7,0,0,0,.1,1.8.265.265,0,0,1-.3.3,14.5,14.5,0,0,0-11.5,15.7c.6,6.6,6.8,12.6,13.4,13h1A14.5,14.5,0,0,0,80.7,137h.5a14.5,14.5,0,0,0,11.5,5.7h1A14.5,14.5,0,0,0,95.6,114Z"/><path d="M104.7,129.5a12.1,12.1,0,0,1-11.2,10.7h-.8a11.9,11.9,0,0,1-9.5-4.7,2.9,2.9,0,0,0-2.3-1.1,2.8,2.8,0,0,0-2.3,1.1,11.9,11.9,0,0,1-9.5,4.7h-.8c-5.4-.3-10.6-5.3-11.2-10.7a11.9,11.9,0,0,1,9.6-13,2.9,2.9,0,0,0,2.3-3.1,12.3,12.3,0,0,1-.1-1.5,12,12,0,0,1,12-12H81a12,12,0,0,1,11.8,10.2,11.5,11.5,0,0,1,.1,3.3,2.8,2.8,0,0,0,2.3,3.1,12,12,0,0,1,9.5,13Z"/><path d="M90.9,149.8c-3.1-.5-6.1-3.9-8.5-6.3l-1-1H81l-1,1c-2.4,2.4-5.4,5.8-8.5,6.3a.3.3,0,0,0-.3.3v2.3a.3.3,0,0,0,.3.3H90.8a.3.3,0,0,0,.3-.3v-2.3A.3.3,0,0,0,90.9,149.8Z"/><path d="M76.5,150.1a39.2,39.2,0,0,0,4.4-4.1l.3-.3.3.3a39.2,39.2,0,0,0,4.4,4.1Z"/></g><text class="b" transform="translate(13.7 38.1)"><tspan x="0" y="0">A</tspan></text><text class="b" transform="translate(149.3 211.9) rotate(180)"><tspan x="0" y="0">A</tspan></text></g></g></svg>