<svg xmlns="http://www.w3.org/2000/svg" width="162" height="250" viewBox="0 0 162 250"><defs><style>.a{fill:#fff;}.b,.c{fill:#f44725;}.c{font-size:38px;font-family:OleoScript-Regular, Oleo Script;letter-spacing:0.1em;}</style></defs><g transform="translate(81 125)"><g transform="translate(-81 -125)"><g transform="translate(0)"><rect class="a" width="161.3" height="249.25" rx="11.6" transform="translate(0.4 0.4)"/><path d="M150,.8A11.3,11.3,0,0,1,161.3,12V238A11.3,11.3,0,0,1,150,249.3H12A11.3,11.3,0,0,1,.8,238V12A11.3,11.3,0,0,1,12,.8H150m0-.7H12A12,12,0,0,0,0,12V238a12,12,0,0,0,12,12H150a12,12,0,0,0,12-12V12A12,12,0,0,0,150,0Z"/></g><path class="b" d="M147.7,24.8,137.1,9.7h-.3L126.3,24.8a.2.2,0,0,0,0,.2l10.5,15.3h.3L147.7,25a.2.2,0,0,0,0-.2" transform="translate(0)"/><path class="b" d="M137,38.1l-9-13.2,9-13,9,13Z" transform="translate(0)"/><path class="b" d="M36.7,225.2,26.1,240.3h-.3L15.3,225.2a.2.2,0,0,1,0-.2l10.5-15.3h.3L36.7,225a.2.2,0,0,1,0,.2" transform="translate(0)"/><path class="b" d="M26,211.9l-9,13.2,9,13,9-13Z" transform="translate(0)"/><path class="b" d="M100.2,124.7l-19-27.2h-.5l-19,27.2a.4.4,0,0,0,0,.4l19,27.6h.5l19-27.6a.4.4,0,0,0,0-.4" transform="translate(0)"/><path class="b" d="M81,148.5,64.7,124.8,81,101.5l16.3,23.3Z" transform="translate(0)"/><text class="c" transform="translate(13.7 38.1)"><tspan x="0" y="0">A</tspan></text><text class="c" transform="translate(149.3 211.9) rotate(180)"><tspan x="0" y="0">A</tspan></text></g></g></svg>