<svg xmlns="http://www.w3.org/2000/svg" width="162" height="250" viewBox="0 0 162 250"><defs><style>.a{fill:#fff;}.b{font-size:38px;font-family:OleoScript-Regular, Oleo Script;letter-spacing:0.1em;}</style></defs><g transform="translate(81 125)"><g transform="translate(-81 -125)"><g transform="translate(0)"><rect class="a" width="161.3" height="249.25" rx="11.6" transform="translate(0.4 0.4)"/><path d="M150,.8A11.3,11.3,0,0,1,161.3,12V238A11.3,11.3,0,0,1,150,249.3H12A11.3,11.3,0,0,1,.8,238V12A11.3,11.3,0,0,1,12,.8H150m0-.7H12A12,12,0,0,0,0,12V238a12,12,0,0,0,12,12H150a12,12,0,0,0,12-12V12A12,12,0,0,0,150,0Z"/></g><path d="M142.4,38.9c-1.7-.3-3.4-2.1-4.7-3.5l-.6-.6h-.3l-.6.6c-1.3,1.3-3,3.2-4.7,3.5a.2.2,0,0,0-.1.2v1.3a.2.2,0,0,0,.2.2h10.7a.2.2,0,0,0,.2-.2V39.1a.215.215,0,0,0-.2-.2" transform="translate(0)"/><path d="M134.4,39.1a21.6,21.6,0,0,0,2.4-2.2h.3a21.6,21.6,0,0,0,2.4,2.2Z" transform="translate(0)"/><path d="M149.1,21.5,137.2,9.6h-.5L124.9,21.5a8.1,8.1,0,0,0,.2,11.6,7.9,7.9,0,0,0,5.4,2.1,8.5,8.5,0,0,0,5.9-2.4l.4-.4h.2l.4.4a8.4,8.4,0,0,0,5.9,2.4,7.9,7.9,0,0,0,5.4-2.1,8,8,0,0,0,.2-11.6" transform="translate(0)"/><path d="M147.9,32.1a6.6,6.6,0,0,1-4.5,1.7,6.9,6.9,0,0,1-4.9-2.1l-.4-.4a1.6,1.6,0,0,0-1.1-.5,1.7,1.7,0,0,0-1.1.5l-.4.4a7.1,7.1,0,0,1-4.9,2.1,6.5,6.5,0,0,1-4.5-1.7,6.7,6.7,0,0,1-.2-9.6L137,11.3l11.1,11.1a6.6,6.6,0,0,1,2,4.8A6.7,6.7,0,0,1,148,32" transform="translate(0)"/><path d="M31.4,211.1c-1.7.3-3.4,2.1-4.7,3.5l-.6.6h-.3l-.6-.6c-1.3-1.3-3-3.2-4.7-3.5a.2.2,0,0,1-.1-.2v-1.3a.2.2,0,0,1,.2-.2H31.4a.2.2,0,0,1,.2.2v1.3a.215.215,0,0,1-.2.2" transform="translate(0)"/><path d="M23.4,210.9a21.6,21.6,0,0,1,2.4,2.2h.3a21.6,21.6,0,0,1,2.4-2.2Z" transform="translate(0)"/><path d="M38.1,228.5,26.2,240.4h-.5L13.9,228.5a8.1,8.1,0,0,1,.2-11.6,7.9,7.9,0,0,1,5.4-2.1,8.5,8.5,0,0,1,5.9,2.4l.4.4H26l.4-.4a8.4,8.4,0,0,1,5.9-2.4,7.9,7.9,0,0,1,5.4,2.1,8,8,0,0,1,.2,11.6" transform="translate(0)"/><path d="M36.9,217.9a6.6,6.6,0,0,0-4.5-1.7,6.9,6.9,0,0,0-4.9,2.1l-.4.4a1.6,1.6,0,0,1-1.1.5,1.7,1.7,0,0,1-1.1-.5l-.4-.4a7.1,7.1,0,0,0-4.9-2.1,6.5,6.5,0,0,0-4.5,1.7,6.7,6.7,0,0,0-.2,9.6L26,238.7l11.1-11.1a6.6,6.6,0,0,0,2-4.8A6.7,6.7,0,0,0,37,218" transform="translate(0)"/><path d="M54.2,103.3c-1-.2-2-1.3-2.8-2.1l-.3-.3h-.2l-.3.3c-.8.8-1.8,1.9-2.8,2.1h-.1v.8h6.6v-.8h-.1" transform="translate(0)"/><path d="M49.4,103.4l1.5-1.3h.2l1.5,1.3Z" transform="translate(0)"/><path d="M58.3,92.9l-7.1-7.1h-.3l-7.1,7.1a4.9,4.9,0,0,0,.1,7,4.8,4.8,0,0,0,3.3,1.3,5.1,5.1,0,0,0,3.6-1.5l.3-.3h.1l.3.3a5,5,0,0,0,3.6,1.5,4.833,4.833,0,0,0,3.4-8.3" transform="translate(0)"/><path d="M57.6,99.2a3.9,3.9,0,0,1-2.7,1,4.1,4.1,0,0,1-3-1.2l-.3-.3a.967.967,0,0,0-1.4,0l-.3.3a4.2,4.2,0,0,1-3,1.2,3.9,3.9,0,0,1-2.7-1,4,4,0,0,1-.1-5.8L51,86.8l6.7,6.7a3.99,3.99,0,0,1-.1,5.8" transform="translate(0)"/><path d="M54.2,133.3c-1-.2-2-1.3-2.8-2.1l-.3-.3h-.2l-.3.3c-.8.8-1.8,1.9-2.8,2.1h-.1v.8h6.6v-.8h-.1" transform="translate(0)"/><path d="M49.4,133.4l1.5-1.3h.2l1.5,1.3Z" transform="translate(0)"/><path d="M58.3,122.9l-7.1-7.1h-.3l-7.1,7.1a4.9,4.9,0,0,0,.1,7,4.8,4.8,0,0,0,3.3,1.3,5.1,5.1,0,0,0,3.6-1.5l.3-.3h.1l.3.3a5,5,0,0,0,3.6,1.5,4.833,4.833,0,0,0,3.4-8.3" transform="translate(0)"/><path d="M57.6,129.2a3.9,3.9,0,0,1-2.7,1A4.1,4.1,0,0,1,52,129l-.3-.3a.967.967,0,0,0-1.4,0l-.3.3a4.2,4.2,0,0,1-3,1.2,3.9,3.9,0,0,1-2.7-1,4,4,0,0,1-.1-5.8l6.6-6.7,6.7,6.7a3.99,3.99,0,0,1-.1,5.8" transform="translate(0)"/><path d="M54.2,163.3c-1-.2-2-1.3-2.8-2.1l-.3-.3h-.2l-.3.3c-.8.8-1.8,1.9-2.8,2.1h-.1v.8h6.6v-.8h-.1" transform="translate(0)"/><path d="M49.4,163.4l1.5-1.3h.2l1.5,1.3Z" transform="translate(0)"/><path d="M58.3,152.9l-7.1-7.1h-.3l-7.1,7.1a4.9,4.9,0,0,0,.1,7,4.8,4.8,0,0,0,3.3,1.3,5.1,5.1,0,0,0,3.6-1.5l.3-.3h.1l.3.3a5,5,0,0,0,3.6,1.5,4.833,4.833,0,0,0,3.4-8.3" transform="translate(0)"/><path d="M57.6,159.2a3.9,3.9,0,0,1-2.7,1A4.1,4.1,0,0,1,52,159l-.3-.3a.967.967,0,0,0-1.4,0l-.3.3a4.2,4.2,0,0,1-3,1.2,3.9,3.9,0,0,1-2.7-1,4,4,0,0,1-.1-5.8l6.6-6.7,6.7,6.7a3.99,3.99,0,0,1-.1,5.8" transform="translate(0)"/><path d="M114.2,103.3c-1-.2-2-1.3-2.8-2.1l-.3-.3h-.2l-.3.3c-.8.8-1.8,1.9-2.8,2.1h-.1v.8h6.6v-.8h-.1" transform="translate(0)"/><path d="M109.4,103.4l1.5-1.3h.2l1.5,1.3Z" transform="translate(0)"/><path d="M118.3,92.9l-7.1-7.1h-.3l-7.1,7.1a4.9,4.9,0,0,0,.1,7,4.8,4.8,0,0,0,3.3,1.3,5.1,5.1,0,0,0,3.6-1.5l.3-.3h.1l.3.3a5,5,0,0,0,3.6,1.5,4.833,4.833,0,0,0,3.4-8.3" transform="translate(0)"/><path d="M117.6,99.2a3.9,3.9,0,0,1-2.7,1A4.1,4.1,0,0,1,112,99l-.3-.3a.967.967,0,0,0-1.4,0l-.3.3a4.2,4.2,0,0,1-3,1.2,3.9,3.9,0,0,1-2.7-1,4,4,0,0,1-.1-5.8l6.6-6.7,6.7,6.7a3.99,3.99,0,0,1-.1,5.8" transform="translate(0)"/><path d="M114.2,133.3c-1-.2-2-1.3-2.8-2.1l-.3-.3h-.2l-.3.3c-.8.8-1.8,1.9-2.8,2.1h-.1v.8h6.6v-.8h-.1" transform="translate(0)"/><path d="M109.4,133.4l1.5-1.3h.2l1.5,1.3Z" transform="translate(0)"/><path d="M118.3,122.9l-7.1-7.1h-.3l-7.1,7.1a4.9,4.9,0,0,0,.1,7,4.8,4.8,0,0,0,3.3,1.3,5.1,5.1,0,0,0,3.6-1.5l.3-.3h.1l.3.3a5,5,0,0,0,3.6,1.5,4.833,4.833,0,0,0,3.4-8.3" transform="translate(0)"/><path d="M117.6,129.2a3.9,3.9,0,0,1-2.7,1A4.1,4.1,0,0,1,112,129l-.3-.3a.967.967,0,0,0-1.4,0l-.3.3a4.2,4.2,0,0,1-3,1.2,3.9,3.9,0,0,1-2.7-1,4,4,0,0,1-.1-5.8l6.6-6.7,6.7,6.7a3.99,3.99,0,0,1-.1,5.8" transform="translate(0)"/><path d="M114.2,163.3c-1-.2-2-1.3-2.8-2.1l-.3-.3h-.2l-.3.3c-.8.8-1.8,1.9-2.8,2.1h-.1v.8h6.6v-.8h-.1" transform="translate(0)"/><path d="M109.4,163.4l1.5-1.3h.2l1.5,1.3Z" transform="translate(0)"/><path d="M118.3,152.9l-7.1-7.1h-.3l-7.1,7.1a4.9,4.9,0,0,0,.1,7,4.8,4.8,0,0,0,3.3,1.3,5.1,5.1,0,0,0,3.6-1.5l.3-.3h.1l.3.3a5,5,0,0,0,3.6,1.5,4.833,4.833,0,0,0,3.4-8.3" transform="translate(0)"/><path d="M117.6,159.2a3.9,3.9,0,0,1-2.7,1A4.1,4.1,0,0,1,112,159l-.3-.3a.967.967,0,0,0-1.4,0l-.3.3a4.2,4.2,0,0,1-3,1.2,3.9,3.9,0,0,1-2.7-1,4,4,0,0,1-.1-5.8l6.6-6.7,6.7,6.7a3.99,3.99,0,0,1-.1,5.8" transform="translate(0)"/><text class="b" transform="translate(13.7 38.1)"><tspan x="0" y="0">6</tspan></text><text class="b" transform="translate(149.3 211.9) rotate(180)"><tspan x="0" y="0">6</tspan></text></g></g></svg>