<svg xmlns="http://www.w3.org/2000/svg" width="162.8" height="250.5" viewBox="0 0 162.8 250.5"><defs><style>.a{fill:#fff;}.b{font-size:38px;font-family:OleoScript-Regular, Oleo Script;letter-spacing:0.1em;}</style></defs><g transform="translate(81.4 125.25)"><g transform="translate(-81.4 -125.25)"><g transform="translate(0.4 0.2)"><path class="a" d="M11.6,249.4A11.6,11.6,0,0,1,0,237.7l.8-226A11.6,11.6,0,0,1,12.4.1l138,.5A11.6,11.6,0,0,1,162,12.3l-.8,226a11.6,11.6,0,0,1-11.6,11.6Z"/><path d="M12.4-.2V.5l138,.5a11.3,11.3,0,0,1,11.2,11.3l-.8,226a11.3,11.3,0,0,1-11.3,11.2l-138-.5A11.3,11.3,0,0,1,.4,237.7l.8-226A11.3,11.3,0,0,1,12.4.5V-.2m0,0a12,12,0,0,0-12,12l-.8,226a12,12,0,0,0,12,12l138,.5h0a12,12,0,0,0,12-12l.8-226a12,12,0,0,0-12-12Z"/></g><g transform="translate(0.4 0.2)"><path d="M86,91.4h-.1a4,4,0,0,0,0-1.3A4.9,4.9,0,0,0,81.2,86h0a4.8,4.8,0,0,0-4.9,4.8,5.6,5.6,0,0,0,0,.6h-.1a4.8,4.8,0,0,0-3.9,5.2,5.1,5.1,0,0,0,4.5,4.3h.3A4.8,4.8,0,0,0,81,99h.2a4.8,4.8,0,0,0,3.8,1.9h.3a4.813,4.813,0,0,0,.7-9.6Z"/><path d="M89,96.5a4,4,0,0,1-3.7,3.6H85a4,4,0,0,1-3.2-1.6,1,1,0,0,0-.8-.4.9.9,0,0,0-.8.4,4,4,0,0,1-3.2,1.6h-.3A4.2,4.2,0,0,1,73,96.5a4,4,0,0,1,3.2-4.3,1,1,0,0,0,.8-1,4.1,4.1,0,0,1,0-.5,4,4,0,0,1,4-4h0A4,4,0,0,1,85.1,90a3.8,3.8,0,0,1,0,1.1.9.9,0,0,0,.8,1A4,4,0,0,1,89,96.5Z"/><path d="M84.4,103.3c-1-.2-2-1.3-2.8-2.1l-.3-.3h-.1l-.3.3c-.8.8-1.8,1.9-2.8,2.1H78v.8h6.7v-.8Z"/><path d="M79.6,103.4A13.1,13.1,0,0,0,81,102h.2a13.1,13.1,0,0,0,1.5,1.4Z"/></g><g transform="translate(0.4 0.2)"><path d="M115.9,121.5h-.1a4,4,0,0,0,0-1.3,4.9,4.9,0,0,0-4.7-4.1h0a4.8,4.8,0,0,0-4.9,4.8,5.6,5.6,0,0,0,0,.6h-.1a4.8,4.8,0,0,0-3.9,5.2,5.1,5.1,0,0,0,4.5,4.3h.3a4.8,4.8,0,0,0,3.9-1.9h.2a4.8,4.8,0,0,0,3.8,1.9h.3a4.813,4.813,0,1,0,.7-9.6Z"/><path d="M118.9,126.6a4,4,0,0,1-3.7,3.6h-.3a4,4,0,0,1-3.2-1.6,1,1,0,0,0-.8-.4.9.9,0,0,0-.8.4,4,4,0,0,1-3.2,1.6h-.3a4.2,4.2,0,0,1-3.7-3.6,4,4,0,0,1,3.2-4.3,1,1,0,0,0,.8-1,4.1,4.1,0,0,1,0-.5,4,4,0,0,1,4-4h0a4,4,0,0,1,3.9,3.4,3.8,3.8,0,0,1,0,1.1.9.9,0,0,0,.8,1,4,4,0,0,1,3.3,4.3Z"/><path d="M114.3,133.4c-1-.2-2-1.3-2.8-2.1l-.3-.3H111l-.3.3c-.8.8-1.8,1.9-2.8,2.1h-.1v.8h6.7v-.8Z"/><path d="M109.5,133.5a13.1,13.1,0,0,0,1.5-1.3h.2a13.1,13.1,0,0,0,1.5,1.4Z"/></g><g transform="translate(0.4 0.2)"><path d="M85.9,121.4h-.1a4,4,0,0,0,0-1.3,4.9,4.9,0,0,0-4.7-4.1h0a4.8,4.8,0,0,0-4.9,4.8,5.6,5.6,0,0,0,0,.6h-.1a4.8,4.8,0,0,0-3.9,5.2,5.1,5.1,0,0,0,4.5,4.3H77a4.8,4.8,0,0,0,3.9-1.9h.2a4.8,4.8,0,0,0,3.8,1.9h.3a4.813,4.813,0,0,0,.7-9.6Z"/><path d="M88.9,126.5a4,4,0,0,1-3.7,3.6h-.3a4,4,0,0,1-3.2-1.6,1,1,0,0,0-.8-.4.9.9,0,0,0-.8.4A4,4,0,0,1,77,130h-.3a4.2,4.2,0,0,1-3.7-3.6,4,4,0,0,1,3.2-4.3,1,1,0,0,0,.8-1,4.1,4.1,0,0,1,0-.5,4,4,0,0,1,4-4h0a4,4,0,0,1,4,3.4,3.8,3.8,0,0,1,0,1.1.9.9,0,0,0,.8,1A4,4,0,0,1,88.9,126.5Z"/><path d="M84.3,133.3c-1-.2-2-1.3-2.8-2.1l-.3-.3H81l-.3.3c-.8.8-1.8,1.9-2.8,2.1h-.1v.8h6.7v-.8Z"/><path d="M79.5,133.4a13.1,13.1,0,0,0,1.5-1.3h.2a13.1,13.1,0,0,0,1.5,1.4Z"/></g><g transform="translate(0.4 0.2)"><path d="M55.9,121.3h-.1a4,4,0,0,0,0-1.3,4.9,4.9,0,0,0-4.7-4.1h0a4.8,4.8,0,0,0-4.9,4.8,5.6,5.6,0,0,0,0,.6h-.1a4.8,4.8,0,0,0-3.9,5.2,5.1,5.1,0,0,0,4.5,4.3H47a4.8,4.8,0,0,0,3.9-1.9h.2a4.8,4.8,0,0,0,3.8,1.9h.3a4.813,4.813,0,1,0,.7-9.6Z"/><path d="M58.9,126.4a4,4,0,0,1-3.7,3.6h-.3a4,4,0,0,1-3.2-1.6,1,1,0,0,0-.8-.4.9.9,0,0,0-.8.4,4,4,0,0,1-3.2,1.6h-.3a4.2,4.2,0,0,1-3.7-3.6,4,4,0,0,1,3.2-4.3,1,1,0,0,0,.8-1,4.1,4.1,0,0,1,0-.5,4,4,0,0,1,4-4h0a4,4,0,0,1,3.9,3.4,3.8,3.8,0,0,1,0,1.1.9.9,0,0,0,.8,1A4,4,0,0,1,58.9,126.4Z"/><path d="M54.3,133.2c-1-.2-2-1.3-2.8-2.1l-.3-.3H51l-.3.3c-.8.8-1.8,1.9-2.8,2.1h-.1v.8h6.7v-.8Z"/><path d="M49.5,133.3A13.1,13.1,0,0,0,51,132h.2a13.1,13.1,0,0,0,1.5,1.4Z"/></g><g transform="translate(0.4 0.2)"><path d="M116,91.5h-.1a4,4,0,0,0,0-1.3,4.9,4.9,0,0,0-4.7-4.1h0a4.8,4.8,0,0,0-4.9,4.8,5.6,5.6,0,0,0,0,.6h-.1a4.8,4.8,0,0,0-3.9,5.2,5.1,5.1,0,0,0,4.5,4.3h.3a4.8,4.8,0,0,0,3.9-1.9h.2A4.8,4.8,0,0,0,115,101h.3a4.813,4.813,0,0,0,.7-9.6Z"/><path d="M119,96.6a4,4,0,0,1-3.7,3.6H115a4,4,0,0,1-3.2-1.6,1,1,0,0,0-.8-.4.9.9,0,0,0-.8.4,4,4,0,0,1-3.2,1.6h-.3a4.2,4.2,0,0,1-3.7-3.6,4,4,0,0,1,3.2-4.3,1,1,0,0,0,.8-1,4.1,4.1,0,0,1,0-.5,4,4,0,0,1,4-4h0a4,4,0,0,1,3.9,3.4,3.8,3.8,0,0,1,0,1.1.9.9,0,0,0,.8,1A4,4,0,0,1,119,96.6Z"/><path d="M114.4,103.4c-1-.2-2-1.3-2.8-2.1l-.3-.3h-.1l-.3.3c-.8.8-1.8,1.9-2.8,2.1H108v.8h6.7v-.8Z"/><path d="M109.6,103.5a13.1,13.1,0,0,0,1.5-1.3h.2a13.1,13.1,0,0,0,1.5,1.4Z"/></g><g transform="translate(0.4 0.2)"><path d="M56,91.3h-.1a4,4,0,0,0,0-1.3,4.9,4.9,0,0,0-4.7-4.1h0a4.8,4.8,0,0,0-4.9,4.8,5.6,5.6,0,0,0,0,.6h-.1a4.8,4.8,0,0,0-3.9,5.2,5.1,5.1,0,0,0,4.5,4.3h.3A4.8,4.8,0,0,0,51,98.9h.2a4.8,4.8,0,0,0,3.8,1.9h.3a4.813,4.813,0,1,0,.7-9.6Z"/><path d="M59,96.4a4,4,0,0,1-3.7,3.6H55a4,4,0,0,1-3.2-1.6A1,1,0,0,0,51,98a.9.9,0,0,0-.8.4A4,4,0,0,1,47,100h-.3A4.2,4.2,0,0,1,43,96.4,4,4,0,0,1,46.4,92a1,1,0,0,0,.8-1,4.1,4.1,0,0,1,0-.5,4,4,0,0,1,4-4h0a4,4,0,0,1,3.9,3.4,3.8,3.8,0,0,1,0,1.1.9.9,0,0,0,.8,1A4,4,0,0,1,59,96.4Z"/><path d="M54.4,103.2c-1-.2-2-1.3-2.8-2.1l-.3-.3h-.1l-.3.3c-.8.8-1.8,1.9-2.8,2.1H48v.8h6.7v-.8Z"/><path d="M49.6,103.3a13.1,13.1,0,0,0,1.5-1.3h.2a13.1,13.1,0,0,0,1.5,1.4Z"/></g><g transform="translate(0.4 0.2)"><path d="M115.8,151.4h-.1a4,4,0,0,0,0-1.3A4.9,4.9,0,0,0,111,146h0a4.8,4.8,0,0,0-4.9,4.8,5.6,5.6,0,0,0,0,.6H106a4.8,4.8,0,0,0-3.9,5.2,5.1,5.1,0,0,0,4.5,4.3h.3a4.8,4.8,0,0,0,3.9-1.9h.2a4.8,4.8,0,0,0,3.8,1.9h.3a4.813,4.813,0,1,0,.7-9.6Z"/><path d="M118.8,156.6a4,4,0,0,1-3.7,3.6h-.3a4,4,0,0,1-3.2-1.6,1,1,0,0,0-.8-.4.9.9,0,0,0-.8.4,4,4,0,0,1-3.2,1.6h-.3a4.2,4.2,0,0,1-3.7-3.6,4,4,0,0,1,3.2-4.3,1,1,0,0,0,.8-1,4.1,4.1,0,0,1,0-.5,4,4,0,0,1,4-4h0a4,4,0,0,1,3.9,3.4,3.8,3.8,0,0,1,0,1.1.9.9,0,0,0,.8,1A4,4,0,0,1,118.8,156.6Z"/><path d="M114.2,163.4c-1-.2-2-1.3-2.8-2.1l-.3-.3H111l-.3.3c-.8.8-1.8,1.9-2.8,2.1h-.1v.8h6.7v-.8Z"/><path d="M109.4,163.5a13.1,13.1,0,0,0,1.5-1.3h.2a13.1,13.1,0,0,0,1.5,1.4Z"/></g><g transform="translate(0.4 0.2)"><path d="M55.8,151.3h-.1a4,4,0,0,0,0-1.3,4.9,4.9,0,0,0-4.7-4.1h0a4.8,4.8,0,0,0-4.9,4.8,5.6,5.6,0,0,0,0,.6H46a4.8,4.8,0,0,0-3.9,5.2,5.1,5.1,0,0,0,4.5,4.3h.3a4.8,4.8,0,0,0,3.9-1.9H51a4.8,4.8,0,0,0,3.8,1.9h.3a4.813,4.813,0,1,0,.7-9.6Z"/><path d="M58.8,156.4a4,4,0,0,1-3.7,3.6h-.3a4,4,0,0,1-3.2-1.6,1,1,0,0,0-.8-.4.9.9,0,0,0-.8.4,4,4,0,0,1-3.2,1.6h-.3a4.2,4.2,0,0,1-3.7-3.6,4,4,0,0,1,3.2-4.3,1,1,0,0,0,.8-1,4.1,4.1,0,0,1,0-.5,4,4,0,0,1,4-4h0a4,4,0,0,1,3.9,3.4,3.8,3.8,0,0,1,0,1.1.9.9,0,0,0,.8,1,4,4,0,0,1,3.3,4.3Z"/><path d="M54.2,163.2c-1-.2-2-1.3-2.8-2.1l-.3-.3H51l-.3.3c-.8.8-1.8,1.9-2.8,2.1h-.1v.8h6.7v-.8Z"/><path d="M49.4,163.3a13.1,13.1,0,0,0,1.5-1.3H51a13.1,13.1,0,0,0,1.5,1.4Z"/></g><g transform="translate(0.4 0.2)"><path d="M85.8,151.4h-.1a4,4,0,0,0,0-1.3A4.9,4.9,0,0,0,81,146h0a4.8,4.8,0,0,0-4.9,4.8,5.6,5.6,0,0,0,0,.6H76a4.8,4.8,0,0,0-3.9,5.2,5.1,5.1,0,0,0,4.5,4.3h.3a4.8,4.8,0,0,0,3.9-1.9H81a4.8,4.8,0,0,0,3.8,1.9h.3a4.813,4.813,0,0,0,.7-9.6Z"/><path d="M88.8,156.5a4,4,0,0,1-3.7,3.6h-.3a4,4,0,0,1-3.2-1.6,1,1,0,0,0-.8-.4.9.9,0,0,0-.8.4,4,4,0,0,1-3.2,1.6h-.3a4.2,4.2,0,0,1-3.7-3.6,4,4,0,0,1,3.2-4.3,1,1,0,0,0,.8-1,4.1,4.1,0,0,1,0-.5,4,4,0,0,1,4-4h0a4,4,0,0,1,3.9,3.4,3.8,3.8,0,0,1,0,1.1.9.9,0,0,0,.8,1A4,4,0,0,1,88.8,156.5Z"/><path d="M84.2,163.3c-1-.2-2-1.3-2.8-2.1l-.3-.3H81l-.3.3c-.8.8-1.8,1.9-2.8,2.1h-.1v.8h6.7v-.8Z"/><path d="M79.4,163.4a13.1,13.1,0,0,0,1.5-1.3H81a13.1,13.1,0,0,0,1.5,1.4Z"/></g><g transform="translate(0.4 0.2)"><path d="M145.5,19.1v-.2a6.7,6.7,0,0,0,0-2.2,8.1,8.1,0,0,0-7.9-6.9h0a8.1,8.1,0,0,0-8.1,8,9.294,9.294,0,0,0,.1,1c0,.1,0,.2-.1.2a8,8,0,0,0-6.4,8.7,8.4,8.4,0,0,0,7.4,7.2h.5a8,8,0,0,0,6.4-3.1h.3a8,8,0,0,0,6.4,3.2h.5a8.1,8.1,0,0,0,1.1-15.9Z"/><path d="M150.5,27.7a6.7,6.7,0,0,1-6.2,5.9h-.4a6.6,6.6,0,0,1-5.3-2.6,1.708,1.708,0,0,0-2.6,0,6.6,6.6,0,0,1-5.3,2.6h-.4a7.1,7.1,0,0,1-6.2-6,6.6,6.6,0,0,1,5.3-7.2,1.6,1.6,0,0,0,1.3-1.7,6.8,6.8,0,0,1-.1-.8,6.7,6.7,0,0,1,6.7-6.6h0a6.7,6.7,0,0,1,6.5,5.7,6.4,6.4,0,0,1,0,1.8,1.6,1.6,0,0,0,1.3,1.7,6.7,6.7,0,0,1,5.4,7.2Z"/><path d="M142.8,39c-1.7-.3-3.4-2.2-4.7-3.5l-.6-.6h-.2l-.6.6c-1.3,1.3-3,3.2-4.7,3.5a.2.2,0,0,0-.1.2v1.3a.2.2,0,0,0,.2.2h10.7a.2.2,0,0,0,.2-.2V39.1A.2.2,0,0,0,142.8,39Z"/><path d="M134.8,39.1a21.8,21.8,0,0,0,2.5-2.2h.3a21.8,21.8,0,0,0,2.5,2.3Z"/></g><g transform="translate(0.4 0.2)"><path d="M40.2,222.2a8.1,8.1,0,0,0-7.5-7.2h-.5a8,8,0,0,0-6.4,3.1h-.3a8,8,0,0,0-6.4-3.2h-.5a8.4,8.4,0,0,0-7.5,7.2,8,8,0,0,0,6.4,8.8c.1,0,.1.1.1.2a9.3,9.3,0,0,0-.1,1,8.1,8.1,0,0,0,8,8.1h0a8.1,8.1,0,0,0,7.9-6.8,6.7,6.7,0,0,0,0-2.2V231A8.1,8.1,0,0,0,40.2,222.2Z"/><path d="M33.5,229.6a1.6,1.6,0,0,0-1.3,1.7,6.4,6.4,0,0,1,0,1.8,6.7,6.7,0,0,1-6.6,5.6h0A6.7,6.7,0,0,1,19,232a6.8,6.8,0,0,1,.1-.8,1.6,1.6,0,0,0-1.3-1.7,6.6,6.6,0,0,1-5.3-7.2,7.1,7.1,0,0,1,6.2-5.9h.4a6.6,6.6,0,0,1,5.3,2.6,1.708,1.708,0,0,0,2.6,0,6.6,6.6,0,0,1,5.3-2.6h.4a6.7,6.7,0,0,1,.9,13.2Z"/><path d="M31.3,210.9v-1.3a.2.2,0,0,0-.2-.2H20.4a.2.2,0,0,0-.2.2v1.3a.2.2,0,0,0,.1.2c1.7.3,3.4,2.2,4.7,3.5l.6.6h.2l.6-.6c1.3-1.3,3-3.2,4.7-3.5a.2.2,0,0,0,.2-.2Z"/><path d="M23.2,210.9h5.2a21.8,21.8,0,0,0-2.5,2.2h-.3a21.8,21.8,0,0,0-2.5-2.3Z"/></g><text class="b" transform="translate(15.8 38.05)"><tspan x="0" y="0">9</tspan></text><text class="b" transform="translate(148 212.35) rotate(180)"><tspan x="0" y="0">9</tspan></text></g></g></svg>