<svg xmlns="http://www.w3.org/2000/svg" width="162" height="250" viewBox="0 0 162 250"><defs><style>.a{fill:#fff;}.b{font-size:38px;font-family:OleoScript-Regular, Oleo Script;letter-spacing:0.1em;}</style></defs><g transform="translate(81 125)"><g transform="translate(-81 -125)"><rect class="a" width="161.3" height="249.25" rx="11.6" transform="translate(0.4 0.4)"/><path d="M150,.7A11.3,11.3,0,0,1,161.3,12V238A11.3,11.3,0,0,1,150,249.2H12A11.3,11.3,0,0,1,.8,238V12A11.3,11.3,0,0,1,12,.7H150m0-.7H12A12,12,0,0,0,0,12V238a12,12,0,0,0,12,12H150a12,12,0,0,0,12-12V12A12,12,0,0,0,150,0Z"/><path d="M142.4,38.9c-1.7-.3-3.4-2.1-4.7-3.5l-.6-.6h-.3l-.6.6c-1.3,1.3-3,3.2-4.7,3.5a.2.2,0,0,0-.1.2v1.3a.2.2,0,0,0,.2.2h10.7a.2.2,0,0,0,.2-.2V39.1a.215.215,0,0,0-.2-.2"/><path d="M134.4,39.1a21.6,21.6,0,0,0,2.4-2.2h.3a21.6,21.6,0,0,0,2.4,2.2Z"/><path d="M149.1,21.5,137.2,9.6h-.5L124.9,21.5a8.1,8.1,0,0,0,.2,11.6,7.9,7.9,0,0,0,5.4,2.1,8.5,8.5,0,0,0,5.9-2.4l.4-.4h.2l.4.4a8.4,8.4,0,0,0,5.9,2.4,7.9,7.9,0,0,0,5.4-2.1,8,8,0,0,0,.2-11.6"/><path d="M147.9,32.1a6.6,6.6,0,0,1-4.5,1.7,6.9,6.9,0,0,1-4.9-2.1l-.4-.4a1.6,1.6,0,0,0-1.1-.5,1.7,1.7,0,0,0-1.1.5l-.4.4a7.1,7.1,0,0,1-4.9,2.1,6.5,6.5,0,0,1-4.5-1.7,6.7,6.7,0,0,1-.2-9.6L137,11.3l11.1,11.1a6.6,6.6,0,0,1,2,4.8A6.7,6.7,0,0,1,148,32"/><path d="M31.4,211.1c-1.7.3-3.4,2.1-4.7,3.5l-.6.6h-.3l-.6-.6c-1.3-1.3-3-3.2-4.7-3.5a.2.2,0,0,1-.1-.2v-1.3a.2.2,0,0,1,.2-.2H31.4a.2.2,0,0,1,.2.2v1.3a.215.215,0,0,1-.2.2"/><path d="M23.4,210.9a21.6,21.6,0,0,1,2.4,2.2h.3a21.6,21.6,0,0,1,2.4-2.2Z"/><path d="M38.1,228.5,26.2,240.4h-.5L13.9,228.5a8.1,8.1,0,0,1,.2-11.6,7.9,7.9,0,0,1,5.4-2.1,8.5,8.5,0,0,1,5.9,2.4l.4.4H26l.4-.4a8.4,8.4,0,0,1,5.9-2.4,7.9,7.9,0,0,1,5.4,2.1,8,8,0,0,1,.2,11.6"/><path d="M36.9,217.9a6.6,6.6,0,0,0-4.5-1.7,6.9,6.9,0,0,0-4.9,2.1l-.4.4a1.6,1.6,0,0,1-1.1.5,1.7,1.7,0,0,1-1.1-.5l-.4-.4a7.1,7.1,0,0,0-4.9-2.1,6.5,6.5,0,0,0-4.5,1.7,6.7,6.7,0,0,0-.2,9.6L26,238.7l11.1-11.1a6.6,6.6,0,0,0,2-4.8A6.7,6.7,0,0,0,37,218"/><path d="M90.6,150c-3.1-.5-6.1-3.8-8.4-6.2l-1-1h-.5l-1,1c-2.4,2.4-5.3,5.7-8.4,6.2a.3.3,0,0,0-.3.3v2.3a.3.3,0,0,0,.3.3H90.6a.3.3,0,0,0,.3-.3v-2.3c-.1-.2-.1-.3-.3-.3"/><path d="M76.3,150.3a38.9,38.9,0,0,0,4.4-4l.3-.3.3.3a38.9,38.9,0,0,0,4.4,4Z"/><path d="M102.8,118.6,81.4,97.3l-.4-.2-.4.2L59.2,118.6a14.6,14.6,0,0,0,.4,20.9,14.3,14.3,0,0,0,9.8,3.8A15.2,15.2,0,0,0,80,139l.8-.8h.4l.8.8a15.1,15.1,0,0,0,10.7,4.4,14.3,14.3,0,0,0,9.8-3.8,14.5,14.5,0,0,0,.4-20.9"/><path d="M100.7,137.7a11.8,11.8,0,0,1-8,3.1,12.3,12.3,0,0,1-8.8-3.7l-.8-.8a2.9,2.9,0,0,0-2-.8,3,3,0,0,0-2,.8l-.8.8a12.7,12.7,0,0,1-8.9,3.7,11.7,11.7,0,0,1-8-3.1,12.1,12.1,0,0,1-.3-17.3l19.9-20,20,20a11.9,11.9,0,0,1,3.5,8.7,12.1,12.1,0,0,1-3.8,8.6"/><text class="b" transform="translate(13.7 38.1)"><tspan x="0" y="0">A</tspan></text><text class="b" transform="translate(149.3 211.9) rotate(180)"><tspan x="0" y="0">A</tspan></text></g></g></svg>