<svg xmlns="http://www.w3.org/2000/svg" width="162" height="250" viewBox="0 0 162 250"><defs><style>.a{fill:#fff;}.b{fill-rule:evenodd;}.c{font-size:38px;font-family:OleoScript-Regular, Oleo Script;letter-spacing:0.1em;}</style></defs><g transform="translate(81 125)"><g transform="translate(-81 -125)"><g transform="translate(0)"><rect class="a" width="161.3" height="249.25" rx="11.6" transform="translate(0.4 0.4)"/><path d="M150,.8A11.3,11.3,0,0,1,161.3,12V238A11.3,11.3,0,0,1,150,249.3H12A11.3,11.3,0,0,1,.8,238V12A11.3,11.3,0,0,1,12,.8H150m0-.7H12A12,12,0,0,0,0,12V238a12,12,0,0,0,12,12H150a12,12,0,0,0,12-12V12A12,12,0,0,0,150,0Z"/></g><path class="b" d="M100.5,103.7l-6.7,4.6a1.4,1.4,0,0,1-1.6,0l-9.9-6.4-9.8,6.4a1.4,1.4,0,0,1-1.6,0l-7-4.7L67.2,115H96.9ZM84.2,117.9H67.5l-4,12.2a1.2,1.2,0,0,0,1.1,1.6h1.5a1.4,1.4,0,0,1,1.4,1.4v3.2c2.1.3,6.7.5,10.5-2.4s5.9-8.3,6.1-16ZM69.7,104l2,1.3,2-1.3-2-2Zm21.1,0,2.1,1.3,1.9-1.3-2-2Zm13.6-3.4L99.6,116a17.4,17.4,0,0,1,.4,2.2,17.7,17.7,0,0,1-.8,7.3v.2a65.5,65.5,0,0,0-2.4,24.4,1.4,1.4,0,0,1-1.3,1.6h-.1a1.4,1.4,0,0,1-1.4-1.3,68.7,68.7,0,0,1,2.5-25.6v-.2a14.8,14.8,0,0,0,.6-6.1v-.6h-10a38.4,38.4,0,0,1-.8,7.2c-1.1,4.9-3.2,8.6-6.4,11.1a16.8,16.8,0,0,1-12.2,3v4.5a5.2,5.2,0,0,0,5.2,5.2h6.6a6.4,6.4,0,0,0,6.4-6.4v-2.7a1.4,1.4,0,0,1,1.3-1.4h.1a1.4,1.4,0,0,1,1.4,1.4v2.7a9.2,9.2,0,0,1-9.2,9.2H72.8a8,8,0,0,1-8-8v-9.2h-.1a4.1,4.1,0,0,1-3.9-5.3l4-12.2L60,100.6A1.4,1.4,0,0,1,62.2,99l5.1,3.4L70.7,99a1.4,1.4,0,0,1,2,0l3.5,3.4L81.5,99a1.4,1.4,0,0,1,1.6,0l5.3,3.5L91.9,99a1.4,1.4,0,0,1,2,0l3.3,3.4,5-3.4a1.4,1.4,0,0,1,2.2,1.6Zm-34,24.6a2.5,2.5,0,1,1,2.5,2.5A2.5,2.5,0,0,1,70.4,125.2Z" transform="translate(0)"/><g transform="translate(0)"><path d="M145.1,18.9v-.2a6.7,6.7,0,0,0,0-2.2A8.1,8.1,0,0,0,137,9.6h0a8.1,8.1,0,0,0-8.1,8.1,9.294,9.294,0,0,0,.1,1c0,.1,0,.2-.1.2a8,8,0,0,0-6.4,8.7,8.4,8.4,0,0,0,7.5,7.2h.5a8,8,0,0,0,6.4-3.2h.3a8,8,0,0,0,6.4,3.2h.5a8.1,8.1,0,0,0,1.1-16Z"/><path d="M150.2,27.5a6.7,6.7,0,0,1-6.2,6h-.4a6.6,6.6,0,0,1-5.3-2.6,1.708,1.708,0,0,0-2.6,0,6.6,6.6,0,0,1-5.3,2.6H130a7.1,7.1,0,0,1-6.2-6,6.6,6.6,0,0,1,5.3-7.2,1.6,1.6,0,0,0,1.3-1.7,6.8,6.8,0,0,1-.1-.8A6.7,6.7,0,0,1,137,11h0a6.7,6.7,0,0,1,6.5,5.7,6.4,6.4,0,0,1,0,1.8,1.6,1.6,0,0,0,1.3,1.7,6.7,6.7,0,0,1,5.4,7.3Z"/><path d="M142.5,38.8c-1.7-.3-3.4-2.1-4.7-3.5l-.6-.6H137l-.6.6c-1.3,1.3-3,3.2-4.7,3.5a.2.2,0,0,0-.1.2v1.3a.2.2,0,0,0,.2.2h10.7a.2.2,0,0,0,.2-.2V38.9a.2.2,0,0,0-.2-.1Z"/><path d="M134.5,38.9a21.8,21.8,0,0,0,2.5-2.3h.3a21.8,21.8,0,0,0,2.5,2.3Z"/></g><g transform="translate(0)"><path d="M40.6,222.4a8.1,8.1,0,0,0-7.5-7.2h-.5a8,8,0,0,0-6.4,3.2h-.3a8,8,0,0,0-6.4-3.2H19a8.4,8.4,0,0,0-7.5,7.2,8,8,0,0,0,6.4,8.7c.1,0,.1.1.1.2a9.3,9.3,0,0,0-.1,1,8.1,8.1,0,0,0,8.1,8.1h0a8.1,8.1,0,0,0,7.9-6.9,6.7,6.7,0,0,0,0-2.2v-.2a8.1,8.1,0,0,0,6.7-8.7Z"/><path d="M33.9,229.7a1.6,1.6,0,0,0-1.3,1.7,6.4,6.4,0,0,1,0,1.8A6.7,6.7,0,0,1,26,239h0a6.7,6.7,0,0,1-6.7-6.7,6.8,6.8,0,0,1,.1-.8,1.6,1.6,0,0,0-1.3-1.7,6.6,6.6,0,0,1-5.3-7.2,7.1,7.1,0,0,1,6.2-6h.4a6.6,6.6,0,0,1,5.3,2.6,1.708,1.708,0,0,0,2.6,0,6.6,6.6,0,0,1,5.3-2.6H33a6.7,6.7,0,0,1,.9,13.2Z"/><path d="M31.6,211.1v-1.3a.2.2,0,0,0-.2-.2H20.7a.2.2,0,0,0-.2.2v1.3a.2.2,0,0,0,.1.2c1.7.3,3.4,2.1,4.7,3.5l.6.6h.2l.6-.6c1.3-1.3,3-3.2,4.7-3.5A.2.2,0,0,0,31.6,211.1Z"/><path d="M23.5,211.1h5.2a21.8,21.8,0,0,0-2.5,2.3h-.3a21.8,21.8,0,0,0-2.5-2.3Z"/></g><text class="c" transform="translate(12 38.1)"><tspan x="0" y="0">K</tspan></text><text class="c" transform="translate(151 211.9) rotate(180)"><tspan x="0" y="0">K</tspan></text></g></g></svg>