<svg xmlns="http://www.w3.org/2000/svg" width="162" height="250" viewBox="0 0 162 250"><defs><style>.a{fill:#fff;}.b,.c,.d{fill:#f44725;}.b{fill-rule:evenodd;}.d{font-size:38px;font-family:OleoScript-Regular, Oleo Script;letter-spacing:0.1em;}</style></defs><g transform="translate(81 125)"><g transform="translate(-81 -125)"><g transform="translate(0)"><rect class="a" width="161.3" height="249.25" rx="11.6" transform="translate(0.4 0.4)"/><path d="M150,.8A11.3,11.3,0,0,1,161.3,12V238A11.3,11.3,0,0,1,150,249.3H12A11.3,11.3,0,0,1,.8,238V12A11.3,11.3,0,0,1,12,.8H150m0-.7H12A12,12,0,0,0,0,12V238a12,12,0,0,0,12,12H150a12,12,0,0,0,12-12V12A12,12,0,0,0,150,0Z"/></g><path class="b" d="M100.5,103.7l-6.7,4.6a1.4,1.4,0,0,1-1.6,0l-9.9-6.4-9.8,6.4a1.4,1.4,0,0,1-1.6,0l-7-4.7L67.2,115H96.9ZM84.2,117.9H67.5l-4,12.2a1.2,1.2,0,0,0,1.1,1.6h1.5a1.4,1.4,0,0,1,1.4,1.4v3.2c2.1.3,6.7.5,10.5-2.4s5.9-8.3,6.1-16ZM69.7,104l2,1.3,2-1.3-2-2Zm21.1,0,2.1,1.3,1.9-1.3-2-2Zm13.6-3.4L99.6,116a17.4,17.4,0,0,1,.4,2.2,17.7,17.7,0,0,1-.8,7.3v.2a65.5,65.5,0,0,0-2.4,24.4,1.4,1.4,0,0,1-1.3,1.6h-.1a1.4,1.4,0,0,1-1.4-1.3,68.7,68.7,0,0,1,2.5-25.6v-.2a14.8,14.8,0,0,0,.6-6.1v-.6h-10a38.4,38.4,0,0,1-.8,7.2c-1.1,4.9-3.2,8.6-6.4,11.1a16.8,16.8,0,0,1-12.2,3v4.5a5.2,5.2,0,0,0,5.2,5.2h6.6a6.4,6.4,0,0,0,6.4-6.4v-2.7a1.4,1.4,0,0,1,1.3-1.4h.1a1.4,1.4,0,0,1,1.4,1.4v2.7a9.2,9.2,0,0,1-9.2,9.2H72.8a8,8,0,0,1-8-8v-9.2h-.1a4.1,4.1,0,0,1-3.9-5.3l4-12.2L60,100.6A1.4,1.4,0,0,1,62.2,99l5.1,3.4L70.7,99a1.4,1.4,0,0,1,2,0l3.5,3.4L81.5,99a1.4,1.4,0,0,1,1.6,0l5.3,3.5L91.9,99a1.4,1.4,0,0,1,2,0l3.3,3.4,5-3.4a1.4,1.4,0,0,1,2.2,1.6Zm-34,24.6a2.5,2.5,0,1,1,2.5,2.5A2.5,2.5,0,0,1,70.4,125.2Z" transform="translate(0)"/><g transform="translate(0)"><path class="c" d="M150.4,13.6a8.5,8.5,0,0,0-6.3-2.6,9.2,9.2,0,0,0-6.5,2.7l-.5.5h-.2l-.5-.5a9.2,9.2,0,0,0-6.5-2.7,8.8,8.8,0,0,0-6.2,15l13,13h.5l12.9-13a8.8,8.8,0,0,0,.3-12.4Z"/><path class="c" d="M149.3,25,137,37.2,124.7,25a7.5,7.5,0,0,1-.1-10.4,7.3,7.3,0,0,1,5.3-2.2,7.7,7.7,0,0,1,5.5,2.3l.5.5a1.7,1.7,0,0,0,2.3,0l.5-.5a7.8,7.8,0,0,1,5.5-2.3,7.3,7.3,0,0,1,5.3,2.2,7.5,7.5,0,0,1-.2,10.4Z"/></g><g transform="translate(0)"><path class="c" d="M39.2,224,26.3,211h-.5l-13,13A8.8,8.8,0,0,0,19,239a9.2,9.2,0,0,0,6.5-2.7l.5-.5h.2l.5.5a9.2,9.2,0,0,0,6.5,2.7,8.5,8.5,0,0,0,6.3-2.6,8.8,8.8,0,0,0-.3-12.4Z"/><path class="c" d="M38.4,235.4a7.3,7.3,0,0,1-5.3,2.2,7.8,7.8,0,0,1-5.5-2.3l-.5-.5a1.7,1.7,0,0,0-2.3,0l-.5.5a7.7,7.7,0,0,1-5.5,2.3,7.3,7.3,0,0,1-5.3-2.2,7.5,7.5,0,0,1,.1-10.4L26,212.8,38.3,225a7.5,7.5,0,0,1,.1,10.4Z"/></g><text class="d" transform="translate(12 38.1)"><tspan x="0" y="0">K</tspan></text><text class="d" transform="translate(151 211.9) rotate(180)"><tspan x="0" y="0">K</tspan></text></g></g></svg>